<svg width="22" height="22" viewBox="0 0 22 22" fill="none" xmlns="http://www.w3.org/2000/svg">
<path d="M17.875 6.70312H14.9531V6.35938C14.9531 4.17656 13.1828 2.40625 11 2.40625C8.81719 2.40625 7.04688 4.17656 7.04688 6.35938V6.70312H4.125C3.74473 6.70312 3.4375 7.01035 3.4375 7.39062V18.9062C3.4375 19.2865 3.74473 19.5938 4.125 19.5938H17.875C18.2553 19.5938 18.5625 19.2865 18.5625 18.9062V7.39062C18.5625 7.01035 18.2553 6.70312 17.875 6.70312ZM8.59375 6.35938C8.59375 5.02949 9.67012 3.95312 11 3.95312C12.3299 3.95312 13.4062 5.02949 13.4062 6.35938V6.70312H8.59375V6.35938ZM17.0156 18.0469H4.98438V8.25H7.04688V10.1406C7.04688 10.2352 7.12422 10.3125 7.21875 10.3125H8.42188C8.51641 10.3125 8.59375 10.2352 8.59375 10.1406V8.25H13.4062V10.1406C13.4062 10.2352 13.4836 10.3125 13.5781 10.3125H14.7812C14.8758 10.3125 14.9531 10.2352 14.9531 10.1406V8.25H17.0156V18.0469Z" fill="#474E57"/>
</svg>
