<svg width="22" height="22" viewBox="0 0 22 22" fill="none" xmlns="http://www.w3.org/2000/svg">
<path d="M15.7711 14.6569L19.1445 18.0295L18.03 19.144L14.6574 15.7706C13.4025 16.7766 11.8416 17.3237 10.2332 17.3215C6.32027 17.3215 3.14453 14.1457 3.14453 10.2328C3.14453 6.31978 6.32027 3.14404 10.2332 3.14404C14.1462 3.14404 17.3219 6.31978 17.3219 10.2328C17.3242 11.8411 16.7771 13.402 15.7711 14.6569ZM14.1911 14.0725C15.1905 13.0444 15.7487 11.6665 15.7467 10.2328C15.7467 7.18697 13.279 4.71931 10.2332 4.71931C7.18746 4.71931 4.7198 7.18697 4.7198 10.2328C4.7198 13.2785 7.18746 15.7462 10.2332 15.7462C11.667 15.7482 13.0449 15.19 14.073 14.1906L14.1911 14.0725Z" fill="#474E57"/>
</svg>
