<svg width="22" height="22" viewBox="0 0 22 22" fill="none" xmlns="http://www.w3.org/2000/svg">
<path d="M11 3.8C10.057 3.8 9.15264 4.17928 8.48584 4.85442C7.81905 5.52955 7.44444 6.44522 7.44444 7.4C7.44444 8.35478 7.81905 9.27045 8.48584 9.94558C9.15264 10.6207 10.057 11 11 11C11.943 11 12.8474 10.6207 13.5142 9.94558C14.181 9.27045 14.5556 8.35478 14.5556 7.4C14.5556 6.44522 14.181 5.52955 13.5142 4.85442C12.8474 4.17928 11.943 3.8 11 3.8ZM5.66667 7.4C5.66667 5.96783 6.22857 4.59432 7.22876 3.58162C8.22896 2.56893 9.58551 2 11 2C12.4145 2 13.771 2.56893 14.7712 3.58162C15.7714 4.59432 16.3333 5.96783 16.3333 7.4C16.3333 8.83217 15.7714 10.2057 14.7712 11.2184C13.771 12.2311 12.4145 12.8 11 12.8C9.58551 12.8 8.22896 12.2311 7.22876 11.2184C6.22857 10.2057 5.66667 8.83217 5.66667 7.4ZM7.44444 16.4C6.7372 16.4 6.05892 16.6845 5.55883 17.1908C5.05873 17.6972 4.77778 18.3839 4.77778 19.1C4.77778 19.3387 4.68413 19.5676 4.51743 19.7364C4.35073 19.9052 4.12464 20 3.88889 20C3.65314 20 3.42705 19.9052 3.26035 19.7364C3.09365 19.5676 3 19.3387 3 19.1C3 17.9065 3.46825 16.7619 4.30175 15.918C5.13524 15.0741 6.2657 14.6 7.44444 14.6H14.5556C15.7343 14.6 16.8648 15.0741 17.6983 15.918C18.5317 16.7619 19 17.9065 19 19.1C19 19.3387 18.9064 19.5676 18.7397 19.7364C18.573 19.9052 18.3469 20 18.1111 20C17.8754 20 17.6493 19.9052 17.4826 19.7364C17.3159 19.5676 17.2222 19.3387 17.2222 19.1C17.2222 18.3839 16.9413 17.6972 16.4412 17.1908C15.9411 16.6845 15.2628 16.4 14.5556 16.4H7.44444Z" fill="#474E57"/>
</svg>
